<?xml version="1.0" encoding="utf-8"?>
<!-- Generator: Adobe Illustrator 16.0.0, SVG Export Plug-In . SVG Version: 6.00 Build 0)  -->
<!DOCTYPE svg PUBLIC "-//W3C//DTD SVG 1.1//EN" "http://www.w3.org/Graphics/SVG/1.1/DTD/svg11.dtd">
<svg version="1.1" id="Layer_1" xmlns="http://www.w3.org/2000/svg" xmlns:xlink="http://www.w3.org/1999/xlink" x="0px" y="0px"
	 width="37.378px" height="30px" viewBox="0 0 37.378 30" enable-background="new 0 0 37.378 30" xml:space="preserve">
<g>
	<path fill="#5A5E5F" d="M8.363,17.482h0.424c0.375,0,0.681-0.305,0.681-0.68c0-0.376-0.305-0.683-0.681-0.683H8.363
		c-0.375,0-0.681,0.307-0.681,0.683C7.683,17.178,7.988,17.482,8.363,17.482z"/>
	<path fill="#5A5E5F" d="M14.129,17.482c0.375,0,0.68-0.305,0.68-0.68c0-0.376-0.305-0.683-0.68-0.683H10.91
		c-0.375,0-0.68,0.307-0.68,0.683c0,0.375,0.305,0.68,0.68,0.68H14.129z"/>
	<path fill="#5A5E5F" d="M8.363,20h5.766c0.375,0,0.68-0.305,0.68-0.68s-0.305-0.681-0.68-0.681H8.363
		c-0.375,0-0.681,0.306-0.681,0.681S7.988,20,8.363,20z"/>
	<path fill="#5A5E5F" d="M26.092,12.267V3.489c0-1.034-0.842-1.875-1.877-1.875H6.834c-1.035,0-1.876,0.841-1.876,1.875v6.307
		c0,0.375,0.305,0.681,0.681,0.681c0.375,0,0.68-0.306,0.68-0.681V3.489c0-0.284,0.231-0.515,0.515-0.515h4.771v6.731
		c0,0.247,0.134,0.474,0.349,0.594c0.212,0.119,0.483,0.113,0.689-0.015l2.882-1.776l2.882,1.776c0.105,0.065,0.226,0.1,0.349,0.1
		c0.379,0,0.689-0.304,0.689-0.678V2.975h4.771c0.285,0,0.517,0.231,0.517,0.515v8.583c-0.157-0.009-0.316-0.014-0.477-0.014
		c-4.504,0-8.167,3.662-8.167,8.164c0,0.387,0.028,0.776,0.083,1.159H6.834c-0.284,0-0.515-0.231-0.515-0.516v-6.306
		c0-0.375-0.305-0.681-0.68-0.681c-0.375,0-0.681,0.306-0.681,0.681v6.306c0,1.035,0.841,1.878,1.876,1.878h9.651
		c1.099,3.38,4.207,5.644,7.77,5.644c4.503,0,8.166-3.663,8.166-8.165C32.421,16.441,29.766,13.116,26.092,12.267z M24.255,27.025
		c-3.753,0-6.807-3.052-6.807-6.804c0-3.751,3.054-6.803,6.807-6.803c3.751,0,6.803,3.052,6.803,6.803
		C31.058,23.974,28.006,27.025,24.255,27.025z M18.083,2.975v5.513l-2.202-1.358c-0.215-0.132-0.498-0.132-0.713,0l-2.202,1.357
		V2.975H18.083z"/>
	<path fill="#5A5E5F" d="M25.218,16.999h-1.664l0.69-0.688c0.264-0.266,0.264-0.697,0-0.962c-0.258-0.258-0.705-0.258-0.963-0.001
		l-1.853,1.85c-0.128,0.127-0.198,0.298-0.198,0.482s0.07,0.355,0.198,0.482l1.853,1.85c0.26,0.258,0.701,0.259,0.963-0.001
		c0.264-0.265,0.264-0.696,0-0.962l-0.69-0.688h1.664c1.201,0,2.178,0.976,2.178,2.176c0,1.201-0.977,2.179-2.178,2.179h-4.786
		c-0.375,0-0.681,0.306-0.681,0.682c0,0.375,0.306,0.681,0.681,0.681h4.786c1.951,0,3.539-1.589,3.539-3.541
		C28.757,18.586,27.169,16.999,25.218,16.999z"/>
	<circle fill="#5A5E5F" cx="5.639" cy="12.178" r="0.681"/>
</g>
</svg>
