<svg width="10" height="12" viewBox="0 0 10 12" fill="none" xmlns="http://www.w3.org/2000/svg">
<path id="Union" fill-rule="evenodd" clip-rule="evenodd" d="M4.15626 4.02183C3.91597 4.09775 3.63563 4.13571 3.31524 4.13571H2.2099V2.09686C2.2099 1.54458 2.65762 1.09686 3.2099 1.09686H3.35128C3.98405 1.09686 4.45662 1.22073 4.769 1.46848C5.08138 1.71622 5.23757 2.07585 5.23757 2.54736C5.23757 2.78311 5.19752 2.99889 5.11742 3.19469C5.03732 3.38649 4.91718 3.55232 4.75698 3.69217C4.59679 3.83203 4.39655 3.94191 4.15626 4.02183ZM8.54858 11.9999C9.07425 11.9999 9.38011 11.4058 9.07474 10.9779L7.38741 8.61369L8.91718 6.50632C9.20844 6.1051 8.9218 5.54285 8.42601 5.54286C8.23165 5.54287 8.04905 5.63595 7.93487 5.79324L6.6438 7.57176L5.05134 5.34046C4.92719 5.15266 4.77901 5.00681 4.6068 4.90292C4.92318 4.81501 5.20553 4.69313 5.45383 4.53729C5.70213 4.38146 5.91038 4.19765 6.07858 3.98587C6.25079 3.77409 6.38095 3.53833 6.46905 3.2786C6.56117 3.01887 6.60722 2.73916 6.60722 2.43947C6.60722 2.07185 6.54314 1.7382 6.41499 1.43851C6.29084 1.13882 6.0966 0.883084 5.83228 0.671304C5.56796 0.455527 5.22955 0.2897 4.81706 0.17382C4.40856 0.0579402 3.91997 0 3.35128 0H1.8042C1.25191 0 0.804199 0.447716 0.804199 1V7.9282C0.804199 8.31637 1.11888 8.63105 1.50705 8.63105C1.89522 8.63105 2.2099 8.31637 2.2099 7.9282V5.15465H2.99085C3.15104 5.15465 3.27118 5.17663 3.35128 5.22059C3.43138 5.26454 3.50547 5.33647 3.57355 5.43636L5.85255 8.66174L4.12862 11.0365C3.83735 11.4378 4.12398 12 4.61978 12C4.81416 12 4.99678 11.907 5.11097 11.7496L6.59242 9.70885L8.00792 11.7122C8.12006 11.904 8.30028 11.9999 8.54858 11.9999Z" fill="#1E7B74"/>
</svg>
